<svg viewBox="0 0 1024 926" xmlns="http://www.w3.org/2000/svg" xmlns:xlink="http://www.w3.org/1999/xlink"><linearGradient id="a" gradientUnits="userSpaceOnUse" x1="196.9" x2="249.7" y1="473.8" y2="417.7"><stop offset=".2" stop-color="#0088a6"/><stop offset=".5" stop-color="#00819f"/><stop offset="1" stop-color="#00728e"/></linearGradient><linearGradient id="b" gradientTransform="matrix(-1 0 0 1 1887.2 0)" gradientUnits="userSpaceOnUse" x1="1060.5" x2="1113.3" y1="473.8" y2="417.7"><stop offset=".2" stop-color="#ff4f40"/><stop offset=".5" stop-color="#f7493e"/><stop offset=".9" stop-color="#e33739"/><stop offset="1" stop-color="#df3438"/></linearGradient><switch><g><path d="m0 675c0 12.6 5.1 24.6 13.9 33.4l212.8 212c2.6 2.6 6 4.4 9.8 5.2s7.5.3 10.9-1.1c3.4-1.5 6.5-3.9 8.5-7a18 18 0 0 0 3.1-10.6v-474.9l-256.1-253.9-2.9-1.8z" fill="url(#a)"/><path d="m1023.6 176.3-2.9 1.8-256.1 253.9v474.9a18 18 0 0 0 3.1 10.6c2 3.1 5.1 5.5 8.5 7a17 17 0 0 0 10.9 1.1c3.8-.8 7.2-2.6 9.8-5.2l212.8-212a47.5 47.5 0 0 0 13.9-33.4z" fill="url(#b)"/><path d="m1020.3 169.3-163-163.7a19.7 19.7 0 0 0 -6.2-4.1 20.2 20.2 0 0 0 -14.6 0c-2.3 1-4.4 2.4-6.2 4.1l-315.2 316c-1.2 1.2-2.2 1.7-3.3 1.7v362.3c4 0 8-1.6 11.3-4.8l244.4-244.1 252.8-251.6a11.2 11.2 0 0 0 0-15.8z" fill="#bbf42e"/><path d="m508.4 321.6-315.2-316a19.7 19.7 0 0 0 -6.2-4.1 20.2 20.2 0 0 0 -14.6 0c-2.3 1-4.4 2.4-6.2 4.1l-162.9 163.7a11.3 11.3 0 0 0 0 15.9l252.8 251.6 244.4 244.1c3.2 3.2 7.2 4.8 11.3 4.8v-362.3c-1.1 0-2.2-.6-3.4-1.8z" fill="#48d3b2"/></g></switch></svg>